<svg width="120" height="120" viewBox="0 0 120 120" fill="none" xmlns="http://www.w3.org/2000/svg">
<path d="M65.05 70V90C65.05 95.5 69.55 100 75.05 100H105.05C110.55 100 115.05 95.5 115.05 90V60C115.05 54.5 110.55 50 105.05 50H90.8C92.15 44.9 95.85 37.45 106.3 34.85L110.1 33.9V20H105.1C91.2 20 80.55 23.85 73.55 31.45C64.1 41.7 65.05 54.85 65.1 55V70H65.05ZM80.95 38.15C83.35 35.55 86.5 33.6 90.3 32.2C82.5 39.3 80.1 49.2 80.1 55V60H105.1V90H75.1V54.6C75.1 54.6 74.5 45.1 81 38.15H80.95ZM5.04999 90C5.04999 95.5 9.54999 100 15.05 100H45.05C50.55 100 55.05 95.5 55.05 90V60C55.05 54.5 50.55 50 45.05 50H30.8C32.15 44.9 35.85 37.45 46.3 34.85L50.1 33.9V20H45.1C31.2 20 20.55 23.85 13.55 31.45C4.09999 41.7 5.04999 54.85 5.09999 55V90H5.04999ZM15.05 54.6C15.05 54.6 14.45 45.1 20.95 38.15C23.35 35.55 26.5 33.6 30.3 32.2C22.5 39.3 20.1 49.2 20.1 55V60H45.1V90H15.05V54.6Z" fill="#0C111D"/>
</svg>
