<svg width="22" height="18" viewBox="0 0 22 18" fill="none" xmlns="http://www.w3.org/2000/svg">
<path d="M20.25 14.75L13.6072 8.75M7.89292 8.75L1.2501 14.75M0.750061 3.75L8.91498 9.46544C9.57615 9.92826 9.90674 10.1597 10.2663 10.2493C10.584 10.3285 10.9162 10.3285 11.2338 10.2493C11.5934 10.1597 11.924 9.92826 12.5851 9.46544L20.7501 3.75M5.55006 16.75H15.9501C17.6302 16.75 18.4703 16.75 19.112 16.423C19.6765 16.1354 20.1355 15.6765 20.4231 15.112C20.7501 14.4702 20.7501 13.6302 20.7501 11.95V5.55C20.7501 3.86984 20.7501 3.02976 20.4231 2.38803C20.1355 1.82354 19.6765 1.3646 19.112 1.07698C18.4703 0.75 17.6302 0.75 15.9501 0.75H5.55006C3.8699 0.75 3.02982 0.75 2.38809 1.07698C1.8236 1.3646 1.36466 1.82354 1.07704 2.38803C0.750061 3.02976 0.750061 3.86984 0.750061 5.55V11.95C0.750061 13.6302 0.750061 14.4702 1.07704 15.112C1.36466 15.6765 1.8236 16.1354 2.38809 16.423C3.02982 16.75 3.8699 16.75 5.55006 16.75Z" stroke="white" stroke-width="1.5" stroke-linecap="round" stroke-linejoin="round"/>
</svg>
