<svg width="20" height="20" viewBox="0 0 20 20" fill="none" xmlns="http://www.w3.org/2000/svg">
<path d="M7 2C8.1046 2 9 2.89543 9 4V10.8271C8.1058 10.1373 6.96602 9.7305 5.6644 9.5136L5.3356 11.4864C6.71622 11.7165 7.59743 12.1528 8.1402 12.7408C8.67 13.3147 9 14.167 9 15.5C9 16.8807 7.88071 18 6.5 18C5.11929 18 4 16.8807 4 15.5V15.1493C4.43007 15.2926 4.87634 15.4099 5.3356 15.4864L5.6644 13.5136C4.92149 13.3898 4.1752 13.1144 3.42909 12.7599C2.58157 12.3573 2 11.499 2 10.5C2 9.6653 2.20761 9.0085 2.55874 8.5257C2.90441 8.0504 3.4419 7.6703 4.24254 7.47014L5 7.28078V4C5 2.89543 5.89543 2 7 2ZM10 1.35418C9.2671 0.52376 8.1947 0 7 0C4.79086 0 3 1.79086 3 4V5.77422C2.14895 6.11644 1.45143 6.64785 0.94126 7.34933C0.29239 8.2415 0 9.3347 0 10.5C0 12.0652 0.79565 13.4367 2 14.2422V15.5C2 17.9853 4.01472 20 6.5 20C7.91363 20 9.175 19.3482 10 18.3287C10.825 19.3482 12.0864 20 13.5 20C15.9853 20 18 17.9853 18 15.5V14.2422C19.2044 13.4367 20 12.0652 20 10.5C20 9.3347 19.7076 8.2415 19.0587 7.34933C18.5486 6.64785 17.8511 6.11644 17 5.77422V4C17 1.79086 15.2091 0 13 0C11.8053 0 10.7329 0.52376 10 1.35418ZM16 15.1493V15.5C16 16.8807 14.8807 18 13.5 18C12.1193 18 11 16.8807 11 15.5C11 14.167 11.33 13.3147 11.8598 12.7408C12.4026 12.1528 13.2838 11.7165 14.6644 11.4864L14.3356 9.5136C13.034 9.7305 11.8942 10.1373 11 10.8271V4C11 2.89543 11.8954 2 13 2C14.1046 2 15 2.89543 15 4V7.28078L15.7575 7.47014C16.5581 7.6703 17.0956 8.0504 17.4413 8.5257C17.7924 9.0085 18 9.6653 18 10.5C18 11.499 17.4184 12.3573 16.5709 12.7599C15.8248 13.1144 15.0785 13.3898 14.3356 13.5136L14.6644 15.4864C15.1237 15.4099 15.5699 15.2926 16 15.1493Z" fill="black"/>
</svg>
