<svg width="21" height="21" viewBox="0 0 21 21" fill="none" xmlns="http://www.w3.org/2000/svg">
<path d="M6.20059 7.04866C6.89659 8.49828 7.84537 9.85693 9.04695 11.0585C10.2485 12.2601 11.6072 13.2089 13.0568 13.9049C13.1815 13.9647 13.2438 13.9947 13.3227 14.0177C13.6031 14.0994 13.9473 14.0407 14.1848 13.8707C14.2516 13.8228 14.3087 13.7657 14.423 13.6514C14.7726 13.3018 14.9475 13.127 15.1232 13.0127C15.7861 12.5817 16.6407 12.5817 17.3036 13.0127C17.4794 13.127 17.6542 13.3018 18.0038 13.6514L18.1986 13.8462C18.7301 14.3777 18.9958 14.6434 19.1402 14.9288C19.4272 15.4963 19.4272 16.1666 19.1402 16.7342C18.9958 17.0195 18.7301 17.2853 18.1986 17.8167L18.041 17.9743C17.5114 18.504 17.2466 18.7688 16.8865 18.971C16.487 19.1955 15.8665 19.3568 15.4083 19.3554C14.9954 19.3542 14.7132 19.2741 14.1487 19.1139C11.1153 18.2529 8.25295 16.6285 5.86497 14.2405C3.47699 11.8525 1.85252 8.99014 0.991548 5.95675C0.831341 5.3923 0.751237 5.11008 0.750009 4.69713C0.748645 4.23891 0.910007 3.61842 1.13443 3.21891C1.33668 2.85888 1.60149 2.59407 2.13111 2.06445L2.28874 1.90681C2.82019 1.37537 3.08591 1.10965 3.37129 0.965303C3.93885 0.678232 4.60912 0.678232 5.17668 0.965302C5.46206 1.10965 5.72778 1.37537 6.25922 1.90681L6.45409 2.10168C6.8037 2.45129 6.9785 2.62609 7.09279 2.80187C7.52378 3.46476 7.52378 4.31934 7.09278 4.98223C6.9785 5.15801 6.8037 5.33281 6.45409 5.68242C6.33978 5.79673 6.28262 5.85388 6.23478 5.9207C6.06477 6.15813 6.00607 6.50239 6.08779 6.78274C6.11079 6.86163 6.14072 6.92397 6.20059 7.04866Z" stroke="white" stroke-width="1.5" stroke-linecap="round" stroke-linejoin="round"/>
</svg>
