<svg width="12" height="17" viewBox="0 0 12 17" fill="none" xmlns="http://www.w3.org/2000/svg">
<path d="M2.0978 2.39567C1.87727 1.84435 1.76701 1.5687 1.81299 1.34741C1.8532 1.1539 1.96818 0.984082 2.13291 0.874878C2.32129 0.75 2.61819 0.75 3.21197 0.75H8.66709C9.26088 0.75 9.55777 0.75 9.74615 0.874878C9.91089 0.984082 10.0259 1.1539 10.0661 1.34741C10.1121 1.5687 10.0018 1.84435 9.78126 2.39567L9.02536 4.28543C8.99329 4.3656 8.97726 4.40568 8.96598 4.44702C8.95596 4.48375 8.94875 4.52119 8.94441 4.55901C8.93953 4.60158 8.93953 4.64476 8.93953 4.7311V6.32906C8.93953 6.48508 8.93953 6.56308 8.95484 6.6377C8.96843 6.70389 8.9909 6.76795 9.02164 6.82813C9.0563 6.89596 9.10503 6.95687 9.20249 7.0787L10.3798 8.55037C10.8791 9.17449 11.1288 9.48656 11.1291 9.74919C11.1293 9.9776 11.0255 10.1937 10.847 10.3362C10.6417 10.5 10.2421 10.5 9.44278 10.5H2.43628C1.63701 10.5 1.23737 10.5 1.03211 10.3362C0.853602 10.1937 0.749754 9.9776 0.75 9.74919C0.750284 9.48656 0.999936 9.17449 1.49924 8.55037L2.67657 7.0787C2.77403 6.95687 2.82277 6.89596 2.85742 6.82813C2.88816 6.76795 2.91063 6.70389 2.92422 6.6377C2.93953 6.56308 2.93953 6.48508 2.93953 6.32906V4.7311C2.93953 4.64476 2.93953 4.60158 2.93465 4.55901C2.93031 4.52119 2.9231 4.48375 2.91308 4.44702C2.9018 4.40568 2.88577 4.3656 2.8537 4.28543L2.0978 2.39567Z" fill="#2B317F"/>
<path d="M5.93953 10.5L5.93953 15.75M2.93953 4.7311V6.32906C2.93953 6.48508 2.93953 6.56308 2.92422 6.6377C2.91063 6.70389 2.88816 6.76795 2.85742 6.82813C2.82277 6.89596 2.77403 6.95687 2.67657 7.0787L1.49924 8.55037C0.999936 9.17449 0.750284 9.48656 0.75 9.74919C0.749754 9.9776 0.853602 10.1937 1.03211 10.3362C1.23737 10.5 1.63701 10.5 2.43628 10.5H9.44278C10.2421 10.5 10.6417 10.5 10.847 10.3362C11.0255 10.1937 11.1293 9.9776 11.1291 9.74919C11.1288 9.48656 10.8791 9.17449 10.3798 8.55037L9.20249 7.0787C9.10503 6.95687 9.0563 6.89596 9.02164 6.82813C8.9909 6.76795 8.96843 6.70389 8.95484 6.6377C8.93953 6.56308 8.93953 6.48508 8.93953 6.32906V4.7311C8.93953 4.64476 8.93953 4.60158 8.94441 4.55901C8.94875 4.52119 8.95596 4.48375 8.96598 4.44702C8.97726 4.40568 8.99329 4.3656 9.02536 4.28543L9.78126 2.39567C10.0018 1.84435 10.1121 1.5687 10.0661 1.34741C10.0259 1.1539 9.91089 0.984082 9.74615 0.874878C9.55777 0.75 9.26088 0.75 8.66709 0.75H3.21197C2.61819 0.75 2.32129 0.75 2.13291 0.874878C1.96818 0.984082 1.8532 1.1539 1.81299 1.34741C1.76701 1.5687 1.87727 1.84435 2.0978 2.39567L2.8537 4.28543C2.88577 4.3656 2.9018 4.40568 2.91308 4.44702C2.9231 4.48375 2.93031 4.52119 2.93465 4.55901C2.93953 4.60158 2.93953 4.64476 2.93953 4.7311Z" stroke="#2B317F" stroke-width="1.5" stroke-linecap="round" stroke-linejoin="round"/>
</svg>
