<svg width="16" height="16" viewBox="0 0 16 16" fill="none" xmlns="http://www.w3.org/2000/svg">
<path d="M3.83333 7.16667C3.05836 7.16667 2.67087 7.16667 2.35295 7.25185C1.49022 7.48302 0.816353 8.15689 0.585185 9.01962C0.5 9.33754 0.5 9.72502 0.5 10.5V11.5C0.5 12.9001 0.5 13.6002 0.772484 14.135C1.01217 14.6054 1.39462 14.9878 1.86502 15.2275C2.3998 15.5 3.09987 15.5 4.5 15.5H11.5C12.9001 15.5 13.6002 15.5 14.135 15.2275C14.6054 14.9878 14.9878 14.6054 15.2275 14.135C15.5 13.6002 15.5 12.9001 15.5 11.5V10.5C15.5 9.72502 15.5 9.33754 15.4148 9.01962C15.1836 8.15689 14.5098 7.48302 13.647 7.25185C13.3291 7.16667 12.9416 7.16667 12.1667 7.16667M11.3333 3.83333L8 0.5M8 0.5L4.66667 3.83333M8 0.5V10.5" stroke="#475467" stroke-linecap="round" stroke-linejoin="round"/>
</svg>
