<svg width="16" height="16" viewBox="0 0 16 16" fill="none" xmlns="http://www.w3.org/2000/svg">
<path d="M11.7451 3.97881L12.7141 3.00989L13.6569 3.9527L12.6879 4.92162C13.509 5.94807 14 7.25008 14 8.66675C14 11.9805 11.3137 14.6667 8 14.6667C4.68629 14.6667 2 11.9805 2 8.66675C2 5.35304 4.68629 2.66675 8 2.66675C9.41667 2.66675 10.7187 3.15773 11.7451 3.97881ZM8 13.3334C10.5773 13.3334 12.6667 11.2441 12.6667 8.66675C12.6667 6.08942 10.5773 4.00008 8 4.00008C5.42267 4.00008 3.33333 6.08942 3.33333 8.66675C3.33333 11.2441 5.42267 13.3334 8 13.3334ZM7.33333 5.33342H8.66667V9.33342H7.33333V5.33342ZM5.33333 0.666748H10.6667V2.00008H5.33333V0.666748Z" fill="#475467"/>
</svg>
