<svg width="18" height="19" viewBox="0 0 18 19" fill="none" xmlns="http://www.w3.org/2000/svg">
<path fill-rule="evenodd" clip-rule="evenodd" d="M8.75 18.125C13.5825 18.125 17.5 14.2075 17.5 9.375C17.5 4.54251 13.5825 0.625 8.75 0.625C3.91751 0.625 0 4.54251 0 9.375C0 10.9443 0.413123 12.4171 1.13655 13.6906L0 18.125L4.57179 17.0649C5.81336 17.7409 7.23682 18.125 8.75 18.125ZM8.75 16.7788C12.839 16.7788 16.1538 13.464 16.1538 9.375C16.1538 5.28597 12.839 1.97115 8.75 1.97115C4.66097 1.97115 1.34615 5.28597 1.34615 9.375C1.34615 10.9538 1.84031 12.4172 2.6824 13.6189L2.01923 16.1058L4.54996 15.4731C5.74335 16.2966 7.19036 16.7788 8.75 16.7788Z" fill="#BFC8D0"/>
<path fill-rule="evenodd" clip-rule="evenodd" d="M8.75 17.5C13.5825 17.5 17.5 13.5825 17.5 8.75C17.5 3.91751 13.5825 0 8.75 0C3.91751 0 0 3.91751 0 8.75C0 10.3193 0.413123 11.7921 1.13655 13.0656L0 17.5L4.57179 16.4399C5.81336 17.1159 7.23682 17.5 8.75 17.5ZM8.75 16.1538C12.839 16.1538 16.1538 12.839 16.1538 8.75C16.1538 4.66097 12.839 1.34615 8.75 1.34615C4.66097 1.34615 1.34615 4.66097 1.34615 8.75C1.34615 10.3288 1.84031 11.7922 2.6824 12.9939L2.01923 15.4808L4.54996 14.8481C5.74335 15.6716 7.19036 16.1538 8.75 16.1538Z" fill="white"/>
<path d="M6.56251 4.68761C6.35447 4.26975 6.03533 4.30675 5.71292 4.30675C5.13673 4.30675 4.23828 4.99692 4.23828 6.2814C4.23828 7.33411 4.70216 8.48645 6.26526 10.2103C7.77378 11.8739 9.75587 12.7344 11.4014 12.7051C13.0469 12.6758 13.3854 11.2598 13.3854 10.7816C13.3854 10.5697 13.2539 10.4639 13.1633 10.4352C12.6025 10.1661 11.5683 9.66465 11.333 9.57044C11.0977 9.47622 10.9748 9.60365 10.8984 9.67297C10.685 9.87634 10.262 10.4757 10.1172 10.6105C9.97236 10.7453 9.75643 10.6771 9.66656 10.6261C9.3359 10.4934 8.43933 10.0946 7.72467 9.40182C6.84083 8.54504 6.78896 8.25027 6.62244 7.98788C6.48922 7.77796 6.58698 7.64917 6.63576 7.59289C6.82619 7.37316 7.08913 7.03393 7.20705 6.86535C7.32496 6.69677 7.23135 6.44082 7.17518 6.28141C6.93361 5.59582 6.72895 5.0219 6.56251 4.68761Z" fill="white"/>
</svg>
