<svg width="137" height="123" viewBox="0 0 137 123" fill="none" xmlns="http://www.w3.org/2000/svg">
<path d="M103.713 2.839C104.943 1.60968 105.557 0.99502 106.266 0.764724C106.889 0.562149 107.561 0.562149 108.185 0.764724C108.893 0.99502 109.508 1.60968 110.737 2.839L134.755 26.8571C135.985 28.0864 136.599 28.7011 136.83 29.4098C137.032 30.0333 137.032 30.7049 136.83 31.3283C136.599 32.0371 135.985 32.6518 134.755 33.8811L48.6531 119.983C47.4238 121.213 46.8091 121.827 46.1003 122.058C45.4769 122.26 44.8053 122.26 44.1818 122.058C43.473 121.827 42.8584 121.213 41.629 119.983L17.611 95.9653C16.3817 94.736 15.767 94.1213 15.5367 93.4125C15.3341 92.7891 15.3341 92.1175 15.5367 91.494C15.767 90.7853 16.3817 90.1706 17.611 88.9413L103.713 2.839Z" fill="#ABDFDB"/>
<path d="M75.7576 21.7571L84.7576 30.7571M57.7576 39.7571L66.7576 48.7571M39.7576 57.7571L48.7576 66.7571M21.7576 75.7571L30.7576 84.7571M4.15147 94.1515L27.3632 117.363C28.5513 118.551 29.1453 119.145 29.8303 119.368C30.4328 119.564 31.0819 119.564 31.6844 119.368C32.3694 119.145 32.9634 118.551 34.1515 117.363L117.363 34.1515C118.551 32.9634 119.145 32.3694 119.368 31.6844C119.564 31.0819 119.564 30.4328 119.368 29.8303C119.145 29.1453 118.551 28.5513 117.363 27.3632L94.1515 4.15147C92.9634 2.96342 92.3694 2.3694 91.6844 2.14683C91.0819 1.95106 90.4328 1.95106 89.8303 2.14683C89.1453 2.3694 88.5513 2.96342 87.3632 4.15147L4.15147 87.3632C2.96342 88.5513 2.3694 89.1453 2.14683 89.8303C1.95106 90.4328 1.95106 91.0819 2.14683 91.6844C2.3694 92.3694 2.96342 92.9634 4.15147 94.1515Z" stroke="black" stroke-width="4" stroke-linecap="round" stroke-linejoin="round"/>
</svg>
