<svg width="144" height="144" viewBox="0 0 144 144" fill="none" xmlns="http://www.w3.org/2000/svg">
<path d="M105.131 85.4058C73.9071 116.63 38.0482 131.395 25.0381 118.385C12.0281 105.375 26.7935 69.5164 58.0176 38.2923C89.2418 7.06814 125.101 -7.69728 138.111 5.31277C151.121 18.3228 136.355 54.1817 105.131 85.4058Z" fill="#ABDFDB"/>
<path d="M105.131 38.2911C136.355 69.5152 151.12 105.374 138.11 118.384C125.1 131.394 89.2415 116.629 58.0174 85.4046C26.7933 54.1805 12.0278 18.3216 25.0379 5.31156C38.0479 -7.69849 73.9068 7.06693 105.131 38.2911Z" fill="#ABDFDB"/>
<path d="M84.9058 61.849C84.9058 63.6889 83.4143 65.1805 81.5744 65.1805C79.7345 65.1805 78.243 63.6889 78.243 61.849C78.243 60.0091 79.7345 58.5176 81.5744 58.5176C83.4143 58.5176 84.9058 60.0091 84.9058 61.849Z" fill="#ABDFDB"/>
<path d="M71.9971 72.0009H72.0571M93.2103 93.2141C65.0925 121.332 32.8011 134.628 21.0854 122.913C9.36967 111.197 22.6661 78.9054 50.7839 50.7877C78.9016 22.6699 111.193 9.37344 122.909 21.0892C134.624 32.8049 121.328 65.0963 93.2103 93.2141ZM93.21 50.7866C121.328 78.9043 134.624 111.196 122.909 122.911C111.193 134.627 78.9014 121.331 50.7836 93.213C22.6659 65.0952 9.36942 32.8038 21.0852 21.0881C32.8009 9.37235 65.0923 22.6688 93.21 50.7866ZM74.9971 72.0009C74.9971 73.6577 73.6539 75.0009 71.9971 75.0009C70.3402 75.0009 68.9971 73.6577 68.9971 72.0009C68.9971 70.344 70.3402 69.0009 71.9971 69.0009C73.6539 69.0009 74.9971 70.344 74.9971 72.0009Z" stroke="black" stroke-width="4" stroke-linecap="round" stroke-linejoin="round"/>
</svg>
