<svg width="135" height="129" viewBox="0 0 135 129" fill="none" xmlns="http://www.w3.org/2000/svg">
<path d="M70.1674 101.101C90.4915 101.101 106.967 84.6252 106.967 64.3011C106.967 43.9771 90.4915 27.5011 70.1674 27.5011C49.8433 27.5011 33.3673 43.9771 33.3673 64.3011C33.3673 84.6252 49.8433 101.101 70.1674 101.101Z" fill="#ABDFDB"/>
<path d="M57.9007 99.0072V113.368C57.9007 120.143 63.3927 125.635 70.1674 125.635C76.9421 125.635 82.434 120.143 82.434 113.368V99.0072M70.1674 2.96777V9.10111M14.9673 64.3011H8.83398M30.3007 24.4345L26.6201 20.7539M110.034 24.4345L113.716 20.7539M131.501 64.3011H125.367M106.967 64.3011C106.967 84.6252 90.4915 101.101 70.1674 101.101C49.8433 101.101 33.3673 84.6252 33.3673 64.3011C33.3673 43.9771 49.8433 27.5011 70.1674 27.5011C90.4915 27.5011 106.967 43.9771 106.967 64.3011Z" stroke="#ABDFDB" stroke-width="5.93549" stroke-linecap="round" stroke-linejoin="round"/>
<path d="M50.5 97.5861V111.635C50.5 118.262 55.8726 123.635 62.5 123.635C69.1274 123.635 74.5 118.262 74.5 111.635V97.5861M62.5 3.63452V9.63452M8.5 63.6345H2.5M23.5 24.6345L19.8994 21.0339M101.5 24.6345L105.101 21.0339M122.5 63.6345H116.5M98.5 63.6345C98.5 83.5168 82.3823 99.6345 62.5 99.6345C42.6177 99.6345 26.5 83.5168 26.5 63.6345C26.5 43.7523 42.6177 27.6345 62.5 27.6345C82.3823 27.6345 98.5 43.7523 98.5 63.6345Z" stroke="black" stroke-width="5" stroke-linecap="round" stroke-linejoin="round"/>
</svg>
