<svg width="140" height="133" viewBox="0 0 140 133" fill="none" xmlns="http://www.w3.org/2000/svg">
<path d="M74.5 2.5L87.5777 36.5021C89.4108 41.2681 90.3273 43.651 91.7526 45.6555C93.0158 47.432 94.568 48.9842 96.3445 50.2474C98.349 51.6727 100.732 52.5892 105.498 54.4223L139.5 67.5L105.498 80.5777C100.732 82.4108 98.349 83.3273 96.3445 84.7526C94.568 86.0158 93.0158 87.568 91.7526 89.3445C90.3273 91.349 89.4108 93.732 87.5777 98.4979L74.5 132.5L61.4223 98.4979C59.5892 93.732 58.6727 91.349 57.2474 89.3445C55.9842 87.568 54.432 86.0158 52.6555 84.7526C50.651 83.3273 48.2681 82.4108 43.5021 80.5777L9.5 67.5L43.502 54.4223C48.268 52.5892 50.651 51.6727 52.6555 50.2474C54.432 48.9842 55.9842 47.432 57.2474 45.6555C58.6727 43.651 59.5892 41.268 61.4223 36.5021L74.5 2.5Z" fill="#ABDFDB"/>
<path d="M62.5 2.5L74.5717 33.8865C76.2638 38.2859 77.1098 40.4856 78.4255 42.3359C79.5915 43.9757 81.0243 45.4085 82.6642 46.5745C84.5144 47.8902 86.7141 48.7362 91.1135 50.4283L122.5 62.5L91.1135 74.5717C86.7141 76.2638 84.5144 77.1098 82.6642 78.4255C81.0243 79.5915 79.5915 81.0243 78.4255 82.6642C77.1098 84.5144 76.2638 86.7141 74.5717 91.1135L62.5 122.5L50.4283 91.1135C48.7362 86.7141 47.8902 84.5144 46.5745 82.6642C45.4085 81.0243 43.9757 79.5915 42.3359 78.4255C40.4856 77.1098 38.2859 76.2638 33.8865 74.5717L2.5 62.5L33.8865 50.4283C38.2859 48.7362 40.4856 47.8902 42.3358 46.5745C43.9757 45.4085 45.4085 43.9757 46.5745 42.3358C47.8902 40.4856 48.7362 38.2859 50.4283 33.8865L62.5 2.5Z" stroke="black" stroke-width="5" stroke-linecap="round" stroke-linejoin="round"/>
</svg>
