<svg width="177" height="48" viewBox="0 0 177 48" fill="none" xmlns="http://www.w3.org/2000/svg">
<path d="M13.5809 3.67464C16.2501 2.56911 19.111 2 22 2V13C20.5554 13 19.125 13.2845 17.7905 13.8374C16.4559 14.3901 15.2432 15.2004 14.2218 16.2218C13.2004 17.2432 12.3901 18.4559 11.8374 19.7905C11.2845 21.125 11 22.5554 11 24H0C0 21.111 0.569108 18.2501 1.67464 15.5809C2.7803 12.9117 4.40075 10.4866 6.44361 8.44361C8.4866 6.40075 10.9117 4.7803 13.5809 3.67464Z" fill="#101828"/>
<path d="M0 24C0 26.889 0.569108 29.7499 1.67464 32.4191C2.7803 35.0883 4.40075 37.5134 6.44361 39.5564C8.48659 41.5992 10.9117 43.2197 13.5809 44.3254C16.2501 45.4309 19.111 46 22 46C24.889 46 27.7499 45.4309 30.4191 44.3254C33.0883 43.2197 35.5134 41.5992 37.5564 39.5564C39.5992 37.5134 41.2197 35.0883 42.3254 32.4191C43.4309 29.7499 44 26.889 44 24H33C33 25.4446 32.7155 26.875 32.1626 28.2095C31.6099 29.5441 30.7996 30.7568 29.7782 31.7782C28.7568 32.7996 27.5441 33.6099 26.2095 34.1626C24.875 34.7155 23.4446 35 22 35C20.5554 35 19.125 34.7155 17.7905 34.1626C16.4559 33.6099 15.2432 32.7996 14.2218 31.7782C13.2004 30.7568 12.3901 29.5441 11.8374 28.2095C11.2845 26.875 11 25.4446 11 24H0Z" fill="#101828"/>
<path d="M22 17C18.134 17 15 20.134 15 24H29C29 20.134 25.866 17 22 17Z" fill="#101828"/>
<path d="M22 31C18.134 31 15 27.866 15 24H29C29 27.866 25.866 31 22 31Z" fill="#101828"/>
<path d="M66.8164 19.402C66.7369 18.5999 66.3955 17.9768 65.7923 17.5327C65.189 17.0886 64.3704 16.8665 63.3363 16.8665C62.6336 16.8665 62.0404 16.966 61.5565 17.1648C61.0726 17.3571 60.7013 17.6255 60.4428 17.9702C60.1909 18.3149 60.065 18.706 60.065 19.1435C60.0517 19.5081 60.128 19.8263 60.2937 20.0981C60.466 20.3698 60.7013 20.6052 60.9996 20.804C61.2979 20.9963 61.6426 21.1653 62.0337 21.3111C62.4248 21.4503 62.8424 21.5696 63.2866 21.6691L65.1161 22.1066C66.0044 22.3054 66.8197 22.5706 67.5621 22.902C68.3046 23.2335 68.9476 23.6411 69.4911 24.125C70.0347 24.6089 70.4556 25.179 70.7539 25.8353C71.0588 26.4915 71.2146 27.2439 71.2212 28.0924C71.2146 29.3386 70.8964 30.4191 70.2667 31.3339C69.6436 32.242 68.7421 32.948 67.5621 33.4517C66.3889 33.9489 64.9736 34.1975 63.3164 34.1975C61.6725 34.1975 60.2406 33.9456 59.021 33.4418C57.8079 32.938 56.86 32.1923 56.1772 31.2046C55.5011 30.2103 55.1464 28.9806 55.1133 27.5157H59.2795C59.3259 28.1984 59.5214 28.7685 59.8661 29.2259C60.2174 29.6767 60.6848 30.018 61.2681 30.25C61.8581 30.4754 62.5243 30.5881 63.2667 30.5881C63.9959 30.5881 64.6289 30.4821 65.1658 30.2699C65.7094 30.0578 66.1303 29.7628 66.4286 29.385C66.7269 29.0071 66.8761 28.573 66.8761 28.0824C66.8761 27.625 66.7402 27.2406 66.4684 26.929C66.2032 26.6175 65.8121 26.3523 65.2951 26.1336C64.7847 25.9148 64.1583 25.716 63.4158 25.537L61.1985 24.9802C59.4817 24.5625 58.1261 23.9096 57.1317 23.0214C56.1374 22.1331 55.6436 20.9366 55.6502 19.4319C55.6436 18.1989 55.9717 17.1217 56.6346 16.2003C57.3041 15.2789 58.2222 14.5597 59.3888 14.0427C60.5555 13.5256 61.8813 13.2671 63.3661 13.2671C64.8775 13.2671 66.1966 13.5256 67.3235 14.0427C68.457 14.5597 69.3387 15.2789 69.9684 16.2003C70.5981 17.1217 70.9229 18.189 70.9428 19.402H66.8164Z" fill="#101828"/>
<path d="M80.9979 34.2074C79.4268 34.2074 78.0746 33.8892 76.9411 33.2529C75.8142 32.6099 74.9458 31.7017 74.3359 30.5285C73.7261 29.3485 73.4212 27.9532 73.4212 26.3424C73.4212 24.7714 73.7261 23.3926 74.3359 22.206C74.9458 21.0195 75.8042 20.0947 76.9112 19.4319C78.0249 18.769 79.3307 18.4375 80.8288 18.4375C81.8364 18.4375 82.7744 18.6 83.6428 18.9248C84.5178 19.2429 85.2801 19.7235 85.9297 20.3665C86.5859 21.0095 87.0964 21.8182 87.4609 22.7927C87.8255 23.7605 88.0078 24.894 88.0078 26.1932V27.3566H75.1115V24.7316H84.0206C84.0206 24.1217 83.888 23.5815 83.6229 23.1108C83.3577 22.6402 82.9898 22.2723 82.5192 22.0071C82.0552 21.7354 81.5149 21.5995 80.8984 21.5995C80.2554 21.5995 79.6854 21.7486 79.1882 22.0469C78.6977 22.3386 78.3132 22.733 78.0348 23.2302C77.7564 23.7207 77.6139 24.2676 77.6072 24.8708V27.3665C77.6072 28.1222 77.7465 28.7751 78.0249 29.3253C78.3099 29.8755 78.7109 30.2998 79.228 30.5981C79.745 30.8964 80.3582 31.0455 81.0675 31.0455C81.5381 31.0455 81.969 30.9792 82.3601 30.8466C82.7512 30.7141 83.0859 30.5152 83.3643 30.25C83.6428 29.9849 83.8549 29.6601 84.0007 29.2756L87.9183 29.5341C87.7195 30.4754 87.3118 31.2974 86.6953 32C86.0855 32.6961 85.2966 33.2396 84.3288 33.6307C83.3677 34.0152 82.2573 34.2074 80.9979 34.2074Z" fill="#101828"/>
<path d="M97.6527 39.9546C96.2805 39.9546 95.1039 39.7657 94.1229 39.3878C93.1484 39.0166 92.3729 38.5095 91.7962 37.8665C91.2195 37.2235 90.8449 36.501 90.6726 35.6989L94.5902 35.1719C94.7095 35.4768 94.8984 35.7619 95.157 36.027C95.4155 36.2922 95.7569 36.5043 96.1811 36.6634C96.612 36.8291 97.1357 36.912 97.7521 36.912C98.6735 36.912 99.4325 36.6866 100.029 36.2358C100.632 35.7917 100.934 35.046 100.934 33.9986V31.2046H100.755C100.569 31.6288 100.291 32.0299 99.9197 32.4077C99.5485 32.7856 99.0713 33.0938 98.4879 33.3324C97.9046 33.5711 97.2086 33.6904 96.3999 33.6904C95.2531 33.6904 94.209 33.4252 93.2678 32.8949C92.3331 32.358 91.5874 31.5393 91.0305 30.439C90.4804 29.332 90.2053 27.9333 90.2053 26.2429C90.2053 24.5128 90.487 23.0678 91.0504 21.9077C91.6139 20.7477 92.3629 19.8793 93.2976 19.3026C94.2389 18.7259 95.2696 18.4375 96.3899 18.4375C97.245 18.4375 97.9609 18.5834 98.5376 18.875C99.1143 19.1601 99.5784 19.518 99.9297 19.9489C100.288 20.3732 100.563 20.7908 100.755 21.2017H100.914V18.6364H105.12V34.0583C105.12 35.3575 104.802 36.4446 104.165 37.3196C103.529 38.1946 102.647 38.8509 101.521 39.2884C100.4 39.7325 99.111 39.9546 97.6527 39.9546ZM97.7422 30.5086C98.425 30.5086 99.0017 30.3395 99.4723 30.0015C99.9496 29.6568 100.314 29.1662 100.566 28.5299C100.825 27.8869 100.954 27.1179 100.954 26.2231C100.954 25.3282 100.828 24.5526 100.576 23.8964C100.324 23.2335 99.9595 22.7197 99.4822 22.3552C99.005 21.9906 98.425 21.8083 97.7422 21.8083C97.0462 21.8083 96.4595 21.9972 95.9822 22.375C95.505 22.7463 95.1437 23.2633 94.8984 23.9262C94.6532 24.5891 94.5305 25.3547 94.5305 26.2231C94.5305 27.1047 94.6532 27.867 94.8984 28.51C95.1503 29.1464 95.5116 29.6402 95.9822 29.9915C96.4595 30.3362 97.0462 30.5086 97.7422 30.5086Z" fill="#101828"/>
<path d="M108.491 33.9091V18.6364H112.528V21.331H112.707C113.025 20.4361 113.555 19.7302 114.298 19.2131C115.04 18.6961 115.928 18.4375 116.962 18.4375C118.01 18.4375 118.901 18.6994 119.637 19.2231C120.373 19.7401 120.863 20.4428 121.109 21.331H121.268C121.579 20.456 122.143 19.7567 122.958 19.233C123.78 18.7027 124.751 18.4375 125.871 18.4375C127.297 18.4375 128.453 18.8916 129.342 19.7998C130.237 20.7013 130.684 21.9806 130.684 23.6378V33.9091H126.458V24.4731C126.458 23.6246 126.233 22.9882 125.782 22.564C125.331 22.1397 124.768 21.9276 124.092 21.9276C123.323 21.9276 122.723 22.1729 122.292 22.6634C121.861 23.1473 121.646 23.787 121.646 24.5824V33.9091H117.539V24.3836C117.539 23.6345 117.324 23.0379 116.893 22.5938C116.469 22.1497 115.908 21.9276 115.212 21.9276C114.742 21.9276 114.317 22.0469 113.94 22.2856C113.568 22.5176 113.273 22.8457 113.055 23.2699C112.836 23.6875 112.727 24.1781 112.727 24.7415V33.9091H108.491Z" fill="#101828"/>
<path d="M140.99 34.2074C139.419 34.2074 138.067 33.8892 136.933 33.2529C135.806 32.6099 134.938 31.7017 134.328 30.5285C133.718 29.3485 133.413 27.9532 133.413 26.3424C133.413 24.7714 133.718 23.3926 134.328 22.206C134.938 21.0195 135.796 20.0947 136.903 19.4319C138.017 18.769 139.323 18.4375 140.821 18.4375C141.829 18.4375 142.767 18.6 143.635 18.9248C144.51 19.2429 145.272 19.7235 145.922 20.3665C146.578 21.0095 147.089 21.8182 147.453 22.7927C147.818 23.7605 148 24.894 148 26.1932V27.3566H135.104V24.7316H144.013C144.013 24.1217 143.88 23.5815 143.615 23.1108C143.35 22.6402 142.982 22.2723 142.511 22.0071C142.047 21.7354 141.507 21.5995 140.891 21.5995C140.248 21.5995 139.678 21.7486 139.18 22.0469C138.69 22.3386 138.305 22.733 138.027 23.2302C137.749 23.7207 137.606 24.2676 137.599 24.8708V27.3665C137.599 28.1222 137.739 28.7751 138.017 29.3253C138.302 29.8755 138.703 30.2998 139.22 30.5981C139.737 30.8964 140.35 31.0455 141.06 31.0455C141.53 31.0455 141.961 30.9792 142.352 30.8466C142.743 30.7141 143.078 30.5152 143.357 30.25C143.635 29.9849 143.847 29.6601 143.993 29.2756L147.911 29.5341C147.712 30.4754 147.304 31.2974 146.688 32C146.078 32.6961 145.289 33.2396 144.321 33.6307C143.36 34.0152 142.25 34.2074 140.99 34.2074Z" fill="#101828"/>
<path d="M155 25.0796V33.9091H150.764V18.6364H154.801V21.331H154.98C155.318 20.4428 155.885 19.7401 156.68 19.2231C157.476 18.6994 158.44 18.4375 159.574 18.4375C160.634 18.4375 161.559 18.6696 162.348 19.1336C163.137 19.5976 163.75 20.2605 164.188 21.1222C164.625 21.9773 164.844 22.9982 164.844 24.1847V33.9091H160.608V24.9404C160.615 24.0057 160.376 23.2766 159.892 22.7529C159.408 22.2226 158.742 21.9574 157.893 21.9574C157.323 21.9574 156.82 22.0801 156.382 22.3253C155.951 22.5706 155.613 22.9285 155.368 23.3992C155.129 23.8632 155.007 24.4233 155 25.0796Z" fill="#101828"/>
<path d="M176.306 18.6364V21.8182H167.108V18.6364H176.306ZM169.196 14.9773H173.432V29.216C173.432 29.6071 173.492 29.912 173.611 30.1307C173.73 30.3428 173.896 30.492 174.108 30.5782C174.327 30.6643 174.579 30.7074 174.864 30.7074C175.063 30.7074 175.262 30.6909 175.461 30.6577C175.659 30.6179 175.812 30.5881 175.918 30.5682L176.584 33.7202C176.372 33.7865 176.074 33.8627 175.689 33.9489C175.305 34.0417 174.837 34.0981 174.287 34.1179C173.266 34.1577 172.372 34.0218 171.603 33.7103C170.84 33.3987 170.247 32.9148 169.823 32.2586C169.399 31.6023 169.19 30.7737 169.196 29.7728V14.9773Z" fill="#101828"/>
</svg>
